<svg width="current" height="current" viewBox="0 0 20 20" fill="none" xmlns="http://www.w3.org/2000/svg">
    <g clip-path="url(#clip0_274_190)">
        <path d="M9.99998 3.17003C10.39 3.17003 10.78 3.20003 11.17 3.27003C14.68 3.85003 17.11 7.02003 16.8 10.64C16.71 11.7 16.4 12.43 15.88 13.34C15.41 14.17 15.5 15.24 16.2 16.82H10.29C6.62998 16.82 3.51998 14.1 3.19998 10.63C3.01998 8.68003 3.64998 6.82003 4.95998 5.39003C6.24998 3.98003 8.08998 3.17003 9.99998 3.17003ZM9.99998 1.67003C5.14998 1.67003 1.25998 5.83003 1.70998 10.77C2.09998 15.11 5.93998 18.32 10.29 18.32H16.95C17.71 18.32 18.21 17.52 17.87 16.84C17.37 15.84 16.89 14.61 17.19 14.07C17.79 13.01 18.18 12.06 18.29 10.76C18.66 6.37003 15.75 2.50003 11.41 1.78003C10.93 1.70003 10.46 1.66003 9.99998 1.66003V1.67003Z" fill="black"/>
    </g>
    <defs>
        <clipPath id="clip0_274_190">
            <rect width="20" height="20" fill="white"/>
        </clipPath>
    </defs>
</svg>