<svg width="20" height="20" viewBox="0 0 20 20" fill="none" xmlns="http://www.w3.org/2000/svg">
<g clip-path="url(#clip0_721_392)">
<path d="M18.1301 9.52C18.1301 4.96 14.4101 1.25 9.85006 1.25C5.29006 1.25 1.56006 4.96 1.56006 9.53V12.62C1.56006 13.18 2.02006 13.63 2.58006 13.63H4.72006C5.28006 13.63 5.73006 13.17 5.73006 12.62V9.79C5.73006 9.52 5.62006 9.26 5.43006 9.07C5.24006 8.88 4.99006 8.78 4.71006 8.77H3.10006C3.48006 5.39 6.36006 2.74 9.85006 2.74C13.3401 2.74 16.2201 5.39 16.5901 8.79L14.9401 8.82C14.3901 8.82 13.9401 9.28 13.9401 9.83V12.61C13.9401 13.17 14.4001 13.62 14.9501 13.62H16.6101C16.6101 13.85 16.6001 14.06 16.5901 14.17C16.3201 16.91 13.7401 17.05 13.4601 17.05H12.2301V16.2C12.2301 15.64 11.7701 15.19 11.2101 15.19H8.70006C8.14006 15.19 7.69006 15.65 7.69006 16.2V17.28C7.69006 17.98 8.26006 18.55 8.96006 18.55H13.4601C14.9201 18.53 17.7601 17.62 18.0801 14.31C18.1101 14 18.1201 12.87 18.1201 12.86V9.51L18.1301 9.52ZM4.23006 10.28V12.14H3.06006V10.28H4.23006ZM10.7401 17.07H9.20006V16.7H10.7401V17.07ZM15.4401 10.31L16.6301 10.29V12.13H15.4401V10.31Z" fill="black"/>
</g>
<defs>
<clipPath id="clip0_721_392">
<rect width="20" height="20" fill="white"/>
</clipPath>
</defs>
</svg>
