<svg width="current" height="current" viewBox="0 0 24 24" fill="none" xmlns="http://www.w3.org/2000/svg">
    <g clip-path="url(#clip0_274_110)">
        <path d="M4.41003 20.6004C4.33003 20.6004 4.28003 20.5599 4.26003 20.5296C4.23003 20.4992 4.20003 20.4486 4.21003 20.3677L4.52003 17.0692C4.52003 17.0692 4.55003 16.9782 4.58003 16.9377L17.56 3.79435C17.61 3.74376 17.67 3.73364 17.71 3.73364C17.75 3.73364 17.81 3.74376 17.86 3.79435L20.72 6.68811C20.8 6.76906 20.8 6.91071 20.72 6.99165L7.72003 20.1451C7.72003 20.1451 7.64003 20.1957 7.60003 20.2058L4.41003 20.6004Z" fill="current"/>
        <path d="M17.71 4.71503L19.81 6.83982L7.32003 19.4773L5.01003 19.7606L5.24003 17.3322L17.71 4.71503ZM17.71 2.97473C17.46 2.97473 17.22 3.06579 17.03 3.25804L4.04003 16.3913C3.88003 16.5531 3.78003 16.7656 3.76003 16.9882L3.45003 20.2867C3.40003 20.8634 3.85003 21.3491 4.41003 21.3491C4.45003 21.3491 4.49003 21.3491 4.53003 21.3491L7.69003 20.9545C7.90003 20.9241 8.10003 20.8331 8.25003 20.6813L21.25 7.52785C21.63 7.14337 21.63 6.53628 21.25 6.1518L18.39 3.25804C18.2 3.06579 17.96 2.97473 17.71 2.97473Z" fill="current"/>
        <path d="M18.84 9.9461L14.64 5.6864" stroke="white" stroke-width="1.5" stroke-linejoin="round"/>
    </g>
    <defs>
        <clipPath id="clip0_274_110">
            <rect width="24" height="24" fill="white"/>
        </clipPath>
    </defs>
</svg>
