<svg width="current" height="current" viewBox="0 0 24 24" fill="none" xmlns="http://www.w3.org/2000/svg">
    <g clip-path="url(#clip0_649_2316)">
        <path d="M17.54 4.53016L20.21 7.20016L7.57999 19.8302L4.96999 19.8702L4.92999 17.1402L17.54 4.53016ZM17.47 2.16016C17.22 2.16016 17 2.24016 16.83 2.41016L3.18999 16.0602C3.01999 16.2302 2.92999 16.4602 2.93999 16.7202L2.98999 20.5202C2.98999 21.2302 3.66999 21.8802 4.36999 21.8802H4.38999L8.04999 21.8202C8.29999 21.8202 8.51999 21.7302 8.67999 21.5702L22.32 7.91016C22.71 7.52016 22.64 6.80016 22.15 6.31016L18.43 2.59016C18.15 2.31016 17.8 2.17016 17.48 2.17016L17.47 2.16016Z" fill="white"/>
        <path d="M18.42 10.24L14.79 6.45996" stroke="white" stroke-width="2" stroke-linecap="round" stroke-linejoin="round"/>
    </g>
    <defs>
        <clipPath id="clip0_649_2316">
            <rect width="24" height="24" fill="white"/>
        </clipPath>
    </defs>
</svg>
