<svg width="20" height="20" viewBox="0 0 20 20" fill="none" xmlns="http://www.w3.org/2000/svg">
<g clip-path="url(#clip0_721_388)">
<path d="M10.0001 18.6399C5.48006 18.6399 1.81006 14.9699 1.81006 10.4499C1.81006 7.9299 2.94006 5.5899 4.92006 4.0299C5.25006 3.7699 5.72006 3.8299 5.97006 4.1499C6.23006 4.4699 6.17006 4.9499 5.85006 5.1999C4.23006 6.4799 3.31006 8.3899 3.31006 10.4499C3.31006 14.1399 6.31006 17.1399 10.0001 17.1399C13.6901 17.1399 16.6901 14.1399 16.6901 10.4499C16.6901 8.3899 15.7601 6.4799 14.1501 5.1999C13.8301 4.9399 13.7701 4.4699 14.0301 4.1499C14.2901 3.8299 14.7601 3.7699 15.0801 4.0299C17.0601 5.5899 18.1901 7.9399 18.1901 10.4499C18.1901 14.9699 14.5201 18.6399 10.0001 18.6399Z" fill="black"/>
<path d="M10 7.87986C9.59 7.87986 9.25 7.53986 9.25 7.12986V2.10986C9.25 1.69986 9.59 1.35986 10 1.35986C10.41 1.35986 10.75 1.69986 10.75 2.10986V7.12986C10.75 7.53986 10.41 7.87986 10 7.87986Z" fill="black"/>
</g>
<defs>
<clipPath id="clip0_721_388">
<rect width="20" height="20" fill="white"/>
</clipPath>
</defs>
</svg>
