<svg width="current" height="current" viewBox="0 0 24 24" fill="none" xmlns="http://www.w3.org/2000/svg">
    <g clip-path="url(#clip0_649_2311)">
        <path d="M12.58 3.37021C13.15 3.37021 13.62 3.83021 13.62 4.41021C13.62 4.86021 13.9 5.24021 14.32 5.39021C15.15 5.68021 15.91 6.12021 16.56 6.69022C16.76 6.86022 17 6.95021 17.25 6.95021C17.43 6.95021 17.6 6.91021 17.76 6.81021C17.92 6.71022 18.1 6.67021 18.28 6.67021C18.64 6.67021 18.99 6.86022 19.18 7.19022L19.76 8.20021C20.05 8.70021 19.88 9.33021 19.38 9.62021C19 9.84021 18.8 10.2702 18.88 10.7102C18.96 11.1302 19 11.5702 19 12.0202C19 12.4702 18.96 12.9002 18.88 13.3302C18.8 13.7602 19 14.2002 19.38 14.4202C19.88 14.7102 20.05 15.3402 19.76 15.8402L19.18 16.8502C18.99 17.1802 18.64 17.3702 18.28 17.3702C18.1 17.3702 17.93 17.3302 17.76 17.2302C17.6 17.1402 17.42 17.0902 17.25 17.0902C17 17.0902 16.76 17.1802 16.56 17.3502C15.91 17.9102 15.15 18.3502 14.32 18.6502C13.9 18.8002 13.62 19.1802 13.62 19.6302C13.62 20.2102 13.16 20.6702 12.58 20.6702H11.42C10.85 20.6702 10.38 20.2102 10.38 19.6302C10.38 19.1802 10.1 18.8002 9.68 18.6502C8.85 18.3602 8.09 17.9202 7.44 17.3502C7.24 17.1802 7 17.0902 6.75 17.0902C6.57 17.0902 6.4 17.1302 6.24 17.2302C6.08 17.3302 5.9 17.3702 5.72 17.3702C5.36 17.3702 5.01 17.1802 4.82 16.8502L4.24 15.8402C3.95 15.3402 4.12 14.7102 4.62 14.4202C5 14.2002 5.2 13.7702 5.12 13.3302C5.04 12.9102 5 12.4702 5 12.0202C5 11.5702 5.04 11.1402 5.12 10.7102C5.2 10.2802 5 9.84021 4.62 9.62021C4.12 9.33021 3.95 8.70021 4.24 8.20021L4.82 7.19022C5.01 6.86022 5.36 6.67021 5.72 6.67021C5.9 6.67021 6.07 6.71022 6.24 6.81021C6.4 6.90022 6.58 6.95021 6.75 6.95021C7 6.95021 7.24 6.86022 7.44 6.69022C8.09 6.13022 8.85 5.69021 9.68 5.39021C10.1 5.24021 10.38 4.86021 10.38 4.41021C10.38 3.83021 10.84 3.37021 11.42 3.37021H12.58ZM12.58 1.72021H11.42C10.09 1.72021 8.98 2.70021 8.77 3.97021C8.01 4.27021 7.31 4.68021 6.67 5.19021C6.37 5.08021 6.05 5.02021 5.72 5.02021C4.76 5.02021 3.87 5.53022 3.39 6.36022L2.81 7.37021C2.14 8.52021 2.43 9.97021 3.43 10.7902C3.37 11.1902 3.34 11.6002 3.34 12.0102C3.34 12.4202 3.37 12.8202 3.43 13.2302C2.43 14.0502 2.15 15.5002 2.81 16.6502L3.39 17.6602C3.87 18.4902 4.76 19.0002 5.72 19.0002C6.04 19.0002 6.36 18.9402 6.67 18.8302C7.31 19.3302 8.02 19.7402 8.77 20.0502C8.98 21.3302 10.09 22.3002 11.42 22.3002H12.58C13.91 22.3002 15.02 21.3202 15.23 20.0502C15.99 19.7502 16.69 19.3402 17.33 18.8302C17.63 18.9402 17.95 19.0002 18.28 19.0002C19.24 19.0002 20.13 18.4902 20.61 17.6602L21.19 16.6502C21.86 15.5002 21.57 14.0502 20.57 13.2302C20.63 12.8302 20.66 12.4202 20.66 12.0102C20.66 11.6002 20.63 11.2002 20.57 10.7902C21.57 9.97021 21.85 8.52021 21.19 7.37021L20.61 6.36022C20.13 5.53022 19.24 5.02021 18.28 5.02021C17.96 5.02021 17.64 5.08021 17.33 5.19021C16.69 4.69021 15.98 4.28021 15.23 3.97021C15.02 2.69021 13.91 1.72021 12.58 1.72021Z" fill="white"/>
        <path d="M12 9.84043C13.19 9.84043 14.16 10.8104 14.16 12.0004C14.16 13.1904 13.19 14.1604 12 14.1604C10.81 14.1604 9.84 13.1904 9.84 12.0004C9.84 10.8104 10.81 9.84043 12 9.84043ZM12 8.19043C9.9 8.19043 8.19 9.90043 8.19 12.0004C8.19 14.1004 9.9 15.8104 12 15.8104C14.1 15.8104 15.81 14.1004 15.81 12.0004C15.81 9.90043 14.1 8.19043 12 8.19043Z" fill="white"/>
    </g>
    <defs>
        <clipPath id="clip0_649_2311">
            <rect width="24" height="24" fill="white"/>
        </clipPath>
    </defs>
</svg>
