<svg width="current" height="current" viewBox="0 0 24 24" fill="none" xmlns="http://www.w3.org/2000/svg">
    <g clip-path="url(#clip0_274_119)">
        <path d="M6.89998 20.65V14.19C6.89998 13.84 6.64998 13.53 6.30998 13.46C4.81998 13.14 3.72998 11.8 3.72998 10.27C3.72998 8.47001 5.18998 7.01001 6.98998 7.01001C7.18998 7.01001 7.39998 7.03001 7.60998 7.07001C7.65998 7.07001 7.69998 7.08001 7.74998 7.08001C8.05998 7.08001 8.34998 6.88001 8.45998 6.58001C9.04998 4.89001 10.65 3.76001 12.43 3.76001C14.21 3.76001 15.81 4.89001 16.4 6.58001C16.51 6.88001 16.79 7.08001 17.11 7.08001C17.16 7.08001 17.2 7.08001 17.25 7.07001C17.46 7.03001 17.67 7.01001 17.87 7.01001C19.67 7.01001 21.13 8.47001 21.13 10.27C21.13 11.84 20.01 13.19 18.46 13.48C18.1 13.55 17.85 13.86 17.85 14.22V20.65H6.89998Z" fill="current"/>
        <path d="M12.43 4.51C13.9 4.51 15.21 5.44 15.7 6.83C15.91 7.44 16.49 7.83 17.11 7.83C17.2 7.83 17.3 7.83 17.39 7.8C17.55 7.77 17.71 7.75 17.87 7.75C19.26 7.75 20.38 8.88 20.38 10.26C20.38 11.47 19.52 12.51 18.32 12.73C17.61 12.86 17.09 13.48 17.09 14.21V19.89H7.64998V14.18C7.64998 13.47 7.15998 12.86 6.45998 12.71C5.30998 12.46 4.47998 11.43 4.47998 10.25C4.47998 8.86 5.60998 7.74 6.98998 7.74C7.13998 7.74 7.29998 7.76 7.46998 7.79C7.55998 7.81 7.65998 7.82 7.74998 7.82C8.37998 7.82 8.94998 7.43 9.15998 6.82C9.64998 5.43 10.96 4.5 12.43 4.5M12.43 3C10.26 3 8.42998 4.39 7.74998 6.33C7.49998 6.28 7.24998 6.26 6.98998 6.26C4.76998 6.26 2.97998 8.06 2.97998 10.27C2.97998 12.2 4.33998 13.81 6.14998 14.19V21.4H18.6V14.22C20.47 13.88 21.88 12.24 21.88 10.28C21.88 8.06 20.08 6.27 17.87 6.27C17.61 6.27 17.36 6.3 17.11 6.34C16.43 4.4 14.6 3.01 12.43 3.01V3Z" fill="current"/>
        <path d="M5.71997 18.34H19.01" stroke="white" stroke-width="1.5" stroke-linejoin="round"/>
    </g>
    <defs>
        <clipPath id="clip0_274_119">
            <rect width="24" height="24" fill="white"/>
        </clipPath>
    </defs>
</svg>
