<svg width="34" height="34" viewBox="0 0 34 34" fill="none" xmlns="http://www.w3.org/2000/svg">
    <path d="M28.28 10.76C28.14 10.76 28 10.78 27.87 10.8C26.44 6.16004 22.12 2.79004 17.01 2.79004C11.9 2.79004 7.59003 6.15004 6.16003 10.78C6.10003 10.78 6.05003 10.76 5.99003 10.76C4.15003 10.76 2.66003 12.25 2.66003 14.09C2.66003 15.93 4.15003 17.42 5.99003 17.42C6.04003 17.42 6.08003 17.41 6.13003 17.41C7.53003 22.1 11.87 25.52 17.01 25.52C22.15 25.52 26.51 22.09 27.9 17.39C28.03 17.4 28.15 17.43 28.28 17.43C30.12 17.43 31.61 15.94 31.61 14.1C31.61 12.26 30.12 10.77 28.28 10.77V10.76Z" fill="none" stroke="#3C3C3C" stroke-width="1.5" stroke-linejoin="round"/>
    <path d="M17.52 2.87C17.52 2.87 13.99 3.21 13.39 4.98C12.69 7.06 14.79 8.26 16.99 8.26C20.28 8.26 20.38 5.93 18.93 5.22C18.39 4.96 17.16 5.23 17.16 5.23" fill="none" stroke="#3C3C3C" stroke-width="1.5" stroke-linecap="round" stroke-linejoin="round"/>
    <path d="M14.06 14.4299C14.6123 14.4299 15.06 13.9822 15.06 13.4299C15.06 12.8776 14.6123 12.4299 14.06 12.4299C13.5077 12.4299 13.06 12.8776 13.06 13.4299C13.06 13.9822 13.5077 14.4299 14.06 14.4299Z" fill="#3C3C3C"/>
    <path d="M20.66 14.4299C21.2123 14.4299 21.66 13.9822 21.66 13.4299C21.66 12.8776 21.2123 12.4299 20.66 12.4299C20.1077 12.4299 19.66 12.8776 19.66 13.4299C19.66 13.9822 20.1077 14.4299 20.66 14.4299Z" fill="#3C3C3C"/>
    <path d="M19.51 17.0701C19.51 18.2201 18.58 19.1601 17.42 19.1601C16.26 19.1601 15.33 18.2301 15.33 17.0701" fill="none" stroke="#3C3C3C" stroke-width="1.5" stroke-linecap="round" stroke-linejoin="round"/>
    <path d="M17.72 24.16C17.72 24.16 18.4 22.46 20.06 22.46C21.72 22.46 22.39 23.4 22.75 24.21C23.11 25.02 23.24 26.85 21.39 28.42L17.78 31.6L17.67 31.68L14.09 28.42C12.24 26.85 12.37 25.02 12.73 24.21C13.09 23.4 13.76 22.46 15.42 22.46C17.08 22.46 17.73 24.16 17.73 24.16H17.72Z" fill="current" stroke="#3C3C3C" stroke-width="1.5" stroke-linejoin="round"/>
</svg>
