<svg width="34" height="34" viewBox="0 0 34 34" fill="none" xmlns="http://www.w3.org/2000/svg">
    <path d="M9.66002 16.31C10.76 14.62 12.44 15.93 12.44 15.93L16.86 20.57V28.87H11.47V25.04L5.40002 18.34V11.21C5.40002 10.43 6.04002 9.79004 6.82002 9.79004C7.60002 9.79004 8.24002 10.43 8.24002 11.21V15.93L12.19 20.06" fill="none" stroke="#3C3C3C" stroke-width="1.5" stroke-linecap="round" stroke-linejoin="round"/>
    <path d="M24.87 16.31C23.77 14.62 22.09 15.93 22.09 15.93L17.67 20.57V28.87H23.06V25.04L29.13 18.34V14.17V11.22C29.13 10.44 28.49 9.80005 27.71 9.80005C26.93 9.80005 26.29 10.44 26.29 11.22V14.17V15.94L22.34 20.07" fill="none" stroke="#3C3C3C" stroke-width="1.5" stroke-linecap="round" stroke-linejoin="round"/>
    <path d="M17.13 6.67C17.13 6.67 17.8 5 19.42 5C21.04 5 21.7 5.92 22.05 6.71C22.4 7.5 22.53 9.3 20.71 10.84L17.17 13.96L17.07 14.04L13.56 10.85C11.74 9.31 11.87 7.51 12.22 6.72C12.57 5.93 13.23 5.01 14.85 5.01C16.47 5.01 17.12 6.68 17.12 6.68L17.13 6.67Z" fill="current" stroke="#3C3C3C" stroke-width="1.5" stroke-linejoin="round"/>
</svg>
