<svg width="34" height="34" viewBox="0 0 34 34" fill="none" xmlns="http://www.w3.org/2000/svg">
    <path d="M17.59 22.22C16.92 19.84 15.36 19.32 15.36 19.32C10.6 17.83 7.84003 22.3 7.84003 22.3L10 19.62C10.37 17.69 10.67 11.88 10.67 11.88H13.5L15.06 9.71999C14.02 8.44999 11.21 7.23999 11.21 7.23999C3.05003 12.23 3.47003 25.87 3.47003 25.87C3.47003 25.87 9.40003 32.26 21.53 28.84C21.53 28.84 26.89 27.57 26.81 23.41V19.47C26.81 19.47 26.44 16.72 23.98 16.2C23.98 16.2 19.14 15.01 16.99 18.13C16.99 18.13 16.3 19.19 16.13 19.6" fill="none" stroke="#3C3C3C" stroke-width="1.5" stroke-linecap="round" stroke-linejoin="round"/>
    <path d="M21.85 4.07007H27.96L26.2 8.98007H30.93L22.69 19.8201L23.78 12.9101H18.03L21.85 4.07007Z" fill="current" stroke="#3C3C3C" stroke-width="1.5" stroke-linejoin="round"/>
    <path d="M13.15 25.33C13.15 25.33 17 28.52 20.76 25.14" fill="none" stroke="#3C3C3C" stroke-width="1.5" stroke-linecap="round" stroke-linejoin="round"/>
</svg>
