<svg width="34" height="34" viewBox="0 0 34 34" fill="none" xmlns="http://www.w3.org/2000/svg">
    <path d="M22.46 30.96C27.2759 30.96 31.18 27.0559 31.18 22.24C31.18 17.4241 27.2759 13.52 22.46 13.52C17.6441 13.52 13.74 17.4241 13.74 22.24C13.74 27.0559 17.6441 30.96 22.46 30.96Z" fill="white" stroke="#3C3C3C" stroke-width="1.5" stroke-linejoin="round"/>
    <path d="M22.44 25.86C24.4448 25.86 26.07 24.2348 26.07 22.23C26.07 20.2252 24.4448 18.6 22.44 18.6C20.4352 18.6 18.81 20.2252 18.81 22.23C18.81 24.2348 20.4352 25.86 22.44 25.86Z" fill="white" stroke="#3C3C3C" stroke-width="1.5" stroke-linejoin="round"/>
    <path d="M26.07 22.23C26.07 22.23 24.21 24.34 22.33 22.46C20.45 20.58 18.81 22.23 18.81 22.23" fill="white"/>
    <path d="M26.07 22.23C26.07 22.23 24.21 24.34 22.33 22.46C20.45 20.58 18.81 22.23 18.81 22.23" stroke="#3C3C3C" stroke-width="1.5" stroke-linecap="round" stroke-linejoin="round"/>
    <path d="M22.44 18.6V13.52" fill="none" stroke="#3C3C3C" stroke-width="1.5" stroke-linecap="round" stroke-linejoin="round"/>
    <path d="M22.44 25.86V30.96" fill="none" stroke="#3C3C3C" stroke-width="1.5" stroke-linecap="round" stroke-linejoin="round"/>
    <path d="M12.27 20.3799C17.0859 20.3799 20.99 16.4759 20.99 11.6599C20.99 6.84402 17.0859 2.93994 12.27 2.93994C7.45406 2.93994 3.54999 6.84402 3.54999 11.6599C3.54999 16.4759 7.45406 20.3799 12.27 20.3799Z" fill="current" stroke="#3C3C3C" stroke-width="1.5" stroke-linejoin="round"/>
    <path d="M12.27 12.66C12.8223 12.66 13.27 12.2123 13.27 11.66C13.27 11.1077 12.8223 10.66 12.27 10.66C11.7177 10.66 11.27 11.1077 11.27 11.66C11.27 12.2123 11.7177 12.66 12.27 12.66Z" fill="#3C3C3C"/>
    <path d="M12.34 6.46997V8.27997" stroke="#3C3C3C" stroke-width="1.5" stroke-linecap="round" stroke-linejoin="round"/>
    <path d="M8.67999 7.92004L9.95999 9.20004" stroke="#3C3C3C" stroke-width="1.5" stroke-linecap="round" stroke-linejoin="round"/>
    <path d="M7.12 11.52H8.93" fill="none" stroke="#3C3C3C" stroke-width="1.5" stroke-linecap="round" stroke-linejoin="round"/>
    <path d="M8.56 15.18L9.84 13.9" fill="none" stroke="#3C3C3C" stroke-width="1.5" stroke-linecap="round" stroke-linejoin="round"/>
    <path d="M12.17 16.7399V14.9299" fill="none" stroke="#3C3C3C" stroke-width="1.5" stroke-linecap="round" stroke-linejoin="round"/>
    <path d="M15.82 15.3L14.54 14.02" fill="none" stroke="#3C3C3C" stroke-width="1.5" stroke-linecap="round" stroke-linejoin="round"/>
    <path d="M17.39 11.7H15.58" fill="none" stroke="#3C3C3C" stroke-width="1.5" stroke-linecap="round" stroke-linejoin="round"/>
    <path d="M15.95 8.04004L14.66 9.32004" fill="none" stroke="#3C3C3C" stroke-width="1.5" stroke-linecap="round" stroke-linejoin="round"/>
</svg>
