<svg width="34" height="34" viewBox="0 0 34 34" fill="none" xmlns="http://www.w3.org/2000/svg">
    <g clip-path="url(#clip0_216_530)">
        <path d="M3.25 18.84C3.25 18.84 4.09 22.82 9.63 22.25L22.58 17.42C22.58 17.42 25.95 15.38 24.96 11.01L3.25 18.84Z" fill="current"/>
        <path d="M31.57 8.60999L3.06 18.91C3.06 18.91 4.84 23.45 10.11 21.91C10.11 21.91 18.81 18.88 22.13 17.55C23.7 16.93 26.17 14.91 24.97 11.02" fill="none" stroke="#3C3C3C" stroke-width="1.5" stroke-linecap="round" stroke-linejoin="round"/>
        <path d="M12.69 30.1H28.83" fill="none" stroke="#3C3C3C" stroke-width="1.5" stroke-linecap="round" stroke-linejoin="round"/>
        <path d="M4.96997 11.1C4.96997 11.1 5.54997 13.12 7.64997 12.23" fill="none" stroke="#3C3C3C" stroke-width="1.5" stroke-linecap="round" stroke-linejoin="round"/>
        <path d="M7.69 8.19004C7.69 8.19004 7.96 5.94004 10.45 5.67004" fill="none" stroke="#3C3C3C" stroke-width="1.5" stroke-linecap="round" stroke-linejoin="round"/>
        <path d="M12.03 11.09C12.5823 11.09 13.03 10.6423 13.03 10.09C13.03 9.53768 12.5823 9.08997 12.03 9.08997C11.4777 9.08997 11.03 9.53768 11.03 10.09C11.03 10.6423 11.4777 11.09 12.03 11.09Z" fill="#3C3C3C"/>
        <path d="M15.41 30.05L16.35 25.18L18.55 26.44L20.84 23.63L22.53 26.67L23.79 24.98C23.79 24.98 26.04 26.06 26.27 29.94" fill="none" stroke="#3C3C3C" stroke-width="1.5" stroke-linecap="round" stroke-linejoin="round"/>
    </g>
    <defs>
        <clipPath id="clip0_216_530">
            <rect width="34" height="34" fill="white"/>
        </clipPath>
    </defs>
</svg>
