<svg width="34" height="34" viewBox="0 0 34 34" fill="none" xmlns="http://www.w3.org/2000/svg">
    <g clip-path="url(#clip0_192_22)">
        <path d="M10.06 20.72L12.1 18.68L7.12 10.72C7.12 10.72 10.21 7.93001 13.34 11.17L15.03 12.86L22.05 5.64001C22.05 5.64001 23.99 3.50001 25.58 5.09001C27.17 6.68001 24.93 8.42001 24.93 8.42001L20.65 12.7C20.65 12.7 17.07 15.09 20 18.03L24.83 22.86L21.4 26.29L18.56 26.34L17.32 27.48" fill="none" stroke="#3C3C3C" stroke-width="1.5" stroke-miterlimit="10"/>
        <path d="M21.38 11.93C21.38 11.93 23.22 11.03 24.57 13.37L27.43 17.68C27.43 17.68 28.33 19.37 27.03 20.67L24.84 22.86" fill="none" stroke="#3C3C3C" stroke-width="1.5" stroke-miterlimit="10"/>
        <path d="M13.44 1.53003V3.74003" fill="none" stroke="#3C3C3C" stroke-width="1.5" stroke-miterlimit="10" stroke-linecap="round"/>
        <path d="M8.46002 3.53003L10.02 5.09003" fill="none" stroke="#3C3C3C" stroke-width="1.5" stroke-miterlimit="10" stroke-linecap="round"/>
        <path d="M18.42 3.53003L16.87 5.09003" fill="none" stroke="#3C3C3C" stroke-width="1.5" stroke-miterlimit="10" stroke-linecap="round"/>
        <path d="M18.1821 28.7801L9.69682 20.2948C9.50155 20.0996 9.18497 20.0996 8.98971 20.2948L6.71283 22.5717C6.51756 22.767 6.51756 23.0836 6.71283 23.2788L15.1981 31.7641C15.3934 31.9594 15.71 31.9594 15.9052 31.7641L18.1821 29.4872C18.3774 29.292 18.3774 28.9754 18.1821 28.7801Z" fill="current" stroke="#3C3C3C" stroke-width="1.5" stroke-miterlimit="10"/>
    </g>
    <defs>
        <clipPath id="clip0_192_22">
            <rect width="34" height="34" fill="white"/>
        </clipPath>
    </defs>
</svg>
