<svg width="34" height="34" viewBox="0 0 34 34" fill="none" xmlns="http://www.w3.org/2000/svg">
    <g clip-path="url(#clip0_217_555)">
        <path d="M17.07 27.64C16.43 27.74 15.77 27.79 15.11 27.79" fill="none" stroke="#3C3C3C" stroke-width="1.5" stroke-miterlimit="10" stroke-linecap="round"/>
        <path d="M15.11 27.79C8.12997 27.79 2.46997 22.13 2.46997 15.15C2.46997 8.17001 8.12997 2.51001 15.11 2.51001C21.63 2.51001 26.99 7.44001 27.68 13.78" fill="none" stroke="#3C3C3C" stroke-width="1.5" stroke-miterlimit="10" stroke-linecap="round"/>
        <path d="M6.53003 10.03C6.53003 10.03 9.57003 7.39002 11.65 7.15002" fill="none" stroke="#3C3C3C" stroke-width="1.5" stroke-miterlimit="10" stroke-linecap="round"/>
        <path d="M22.23 9.82995C22.23 9.82995 19.19 7.18995 17.11 6.94995" fill="none" stroke="#3C3C3C" stroke-width="1.5" stroke-miterlimit="10" stroke-linecap="round"/>
        <path d="M8.38 12.3801C8.38 12.3801 9 13.7501 10.23 13.7501C11.46 13.7501 12.29 12.3101 12.29 12.3101" fill="none" stroke="#3C3C3C" stroke-width="1.5" stroke-miterlimit="10" stroke-linecap="round"/>
        <path d="M16.09 12.29C16.09 12.29 16.71 13.66 17.94 13.66C19.17 13.66 20 12.22 20 12.22" fill="none" stroke="#3C3C3C" stroke-width="1.5" stroke-miterlimit="10" stroke-linecap="round"/>
        <path d="M8.59998 17.63C8.59998 17.63 13.13 21.2 20.13 17.97C20.13 17.97 19.99 23.25 14.71 23.73C9.42998 24.21 8.59998 17.62 8.59998 17.62V17.63Z" fill="current" stroke="#3C3C3C" stroke-width="1.5" stroke-linejoin="round"/>
        <path d="M27.68 18.06V13.86H25.65V18.06C25.65 18.06 25.5 19.01 24.79 19.64C24.4 19.99 23.9 20.98 23.94 22.03V29.69H29.62V21.86C29.62 21.86 29.46 20.29 28.48 19.47C27.5 18.65 27.69 18.05 27.69 18.05L27.68 18.06Z" fill="none" stroke="#3C3C3C" stroke-width="1.5" stroke-linejoin="round"/>
        <path d="M25.65 15.9299H27.72" fill="none" stroke="#3C3C3C" stroke-width="1.5" stroke-linejoin="round"/>
        <path d="M23.88 23.74H29.67" fill="none" stroke="#3C3C3C" stroke-width="1.5" stroke-linejoin="round"/>
        <path d="M23.88 27.6799H29.75" fill="none" stroke="#3C3C3C" stroke-width="1.5" stroke-linejoin="round"/>
        <path d="M17.21 26.08H21.95V27.83C21.95 29.14 20.89 30.2 19.58 30.2C18.27 30.2 17.21 29.14 17.21 27.83V26.08Z" fill="none" stroke="#3C3C3C" stroke-width="1.5" stroke-linejoin="round"/>
    </g>
    <defs>
        <clipPath id="clip0_217_555">
            <rect width="34" height="34" fill="white"/>
        </clipPath>
    </defs>
</svg>
