<svg width="20" height="20" viewBox="0 0 20 20" fill="none" xmlns="http://www.w3.org/2000/svg">
<g clip-path="url(#clip0_730_1239)">
<path d="M8.45996 13.9601C8.86996 13.9601 9.20996 13.6201 9.20996 13.2101V9.06006C9.20996 8.65006 8.86996 8.31006 8.45996 8.31006C8.04996 8.31006 7.70996 8.65006 7.70996 9.06006V13.2101C7.70996 13.6201 8.04996 13.9601 8.45996 13.9601Z" fill="black"/>
<path d="M11.7603 13.9601C12.1703 13.9601 12.5103 13.6201 12.5103 13.2101V9.06006C12.5103 8.65006 12.1703 8.31006 11.7603 8.31006C11.3503 8.31006 11.0103 8.65006 11.0103 9.06006V13.2101C11.0103 13.6201 11.3503 13.9601 11.7603 13.9601Z" fill="black"/>
<path d="M17.6601 4.76982H12.9801V3.89982C12.9801 3.29982 12.4901 2.81982 11.9001 2.81982H8.32006C7.72006 2.81982 7.24006 3.30982 7.24006 3.89982V4.76982H2.56006C2.15006 4.76982 1.81006 5.10982 1.81006 5.51982C1.81006 5.92982 2.15006 6.26982 2.56006 6.26982H3.20006L4.94006 16.5498C5.09006 17.4398 5.88006 18.0798 6.82006 18.0798H13.4001C14.3401 18.0798 15.1301 17.4398 15.2801 16.5498L17.0201 6.26982H17.6601C18.0701 6.26982 18.4101 5.92982 18.4101 5.51982C18.4101 5.10982 18.0701 4.76982 17.6601 4.76982ZM8.74006 4.30982H11.4801V4.75982H8.74006V4.30982ZM13.8001 16.2998C13.7701 16.4598 13.6001 16.5798 13.4001 16.5798H6.82006C6.62006 16.5798 6.45006 16.4598 6.42006 16.2998L4.72006 6.26982H15.4901L13.7901 16.2998H13.8001Z" fill="black"/>
</g>
<defs>
<clipPath id="clip0_730_1239">
<rect width="20" height="20" fill="white"/>
</clipPath>
</defs>
</svg>
