<svg width="current" height="current" viewBox="0 0 24 24" fill="none" xmlns="http://www.w3.org/2000/svg">
    <g clip-path="url(#clip0_274_128)">
        <path d="M5.90997 19.64V4.42004H19.05C19.5 4.42004 19.87 4.79004 19.87 5.24004V18.82C19.87 19.27 19.5 19.64 19.05 19.64H5.90997Z" fill="current"/>
        <path d="M19.05 5.17004C19.05 5.17004 19.12 5.20004 19.12 5.24004V18.82C19.12 18.82 19.09 18.89 19.05 18.89H6.65997V5.17004H19.05ZM19.05 3.67004H5.15997V20.39H19.05C19.92 20.39 20.62 19.69 20.62 18.82V5.24004C20.62 4.37004 19.92 3.67004 19.05 3.67004Z" fill="current"/>
        <path d="M4.61998 5.16003H4.09998V5.49003H4.61998V5.16003Z" fill="current"/>
        <path d="M5.35998 4.41003H3.34998V6.24003H5.35998V4.41003Z" fill="current"/>
        <path d="M4.61998 9.71008H4.09998V10.0401H4.61998V9.71008Z" fill="current"/>
        <path d="M5.35998 8.96008H3.34998V10.7901H5.35998V8.96008Z" fill="current"/>
        <path d="M4.61998 14.3301H4.09998V14.6601H4.61998V14.3301Z" fill="current"/>
        <path d="M5.35998 13.5801H3.34998V15.4101H5.35998V13.5801Z" fill="current"/>
        <path d="M4.61998 18.9401H4.09998V19.2701H4.61998V18.9401Z" fill="current"/>
        <path d="M5.35998 18.1901H3.34998V20.0201H5.35998V18.1901Z" fill="current"/>
        <path d="M10.18 10.86C10.6936 10.86 11.11 10.4436 11.11 9.93C11.11 9.41638 10.6936 9 10.18 9C9.66638 9 9.25 9.41638 9.25 9.93C9.25 10.4436 9.66638 10.86 10.18 10.86Z" fill="white"/>
        <path d="M16.14 10.86C16.6536 10.86 17.07 10.4436 17.07 9.93C17.07 9.41638 16.6536 9 16.14 9C15.6263 9 15.21 9.41638 15.21 9.93C15.21 10.4436 15.6263 10.86 16.14 10.86Z" fill="white"/>
        <path d="M9.19995 13.1001C9.19995 13.1001 9.19995 13.1401 9.19995 13.1601C9.19995 15.2801 10.92 17.0001 13.04 17.0001C15.16 17.0001 16.84 15.3101 16.87 13.2201L9.19995 13.1001V13.1001Z" fill="white"/>
    </g>
    <defs>
        <clipPath id="clip0_274_128">
            <rect width="24" height="24" fill="white"/>
        </clipPath>
    </defs>
</svg>
