<svg width="34" height="34" viewBox="0 0 34 34" fill="none" xmlns="http://www.w3.org/2000/svg">
    <g clip-path="url(#clip0_217_571)">
        <path d="M27.7 14.3C27.7 14.3 30.88 19.84 23.73 28.19C23.14 28.87 22.16 29.76 20.6 29.97C19.03 30.18 17.15 29.13 17.15 29.13C17.15 29.13 15.03 30.17 13.47 29.97C11.91 29.77 10.92 28.88 10.34 28.19C3.19003 19.84 6.37003 14.3 6.37003 14.3C9.82003 6.47003 17.12 10.12 17.12 10.12C17.12 10.12 24.26 6.46003 27.71 14.3H27.7Z" fill="none" stroke="#3C3C3C" stroke-width="1.5" stroke-linecap="round" stroke-linejoin="round"/>
        <path d="M13.94 3.90002C13.94 3.90002 17.53 4.33002 17.13 9.31002" fill="none" stroke="#3C3C3C" stroke-width="1.5" stroke-linecap="round" stroke-linejoin="round"/>
        <path d="M17.44 9.01001C17.44 9.01001 17.24 3.01001 23.69 3.71001C23.69 3.71001 24.63 9.55001 17.44 9.01001Z" fill="none" stroke="#3C3C3C" stroke-width="1.5" stroke-linecap="round" stroke-linejoin="round"/>
        <path d="M29.73 15.7L7.82997 27.62C4.91997 25.97 5.27997 22.81 5.27997 22.81L9.14997 20.76L27.28 11.17C27.28 11.17 29.94 12.25 29.73 15.7Z" fill="current" stroke="#3C3C3C" stroke-width="1.5" stroke-linejoin="round"/>
        <path d="M18.86 15.77L19.69 17.35" fill="none" stroke="#3C3C3C" stroke-width="1.5" stroke-linecap="round" stroke-linejoin="round"/>
        <path d="M13.48 18.71L14.31 20.29" fill="none" stroke="#3C3C3C" stroke-width="1.5" stroke-linecap="round" stroke-linejoin="round"/>
        <path d="M7.78998 21.6899L8.62998 23.2699" fill="none" stroke="#3C3C3C" stroke-width="1.5" stroke-linecap="round" stroke-linejoin="round"/>
        <path d="M24.45 13.01L25.28 14.59" fill="none" stroke="#3C3C3C" stroke-width="1.5" stroke-linecap="round" stroke-linejoin="round"/>
        <path d="M26.84 24.67H29.41V29.36H22.93" fill="none" stroke="#3C3C3C" stroke-width="1.5" stroke-linecap="round" stroke-linejoin="round"/>
        <path d="M5.78001 14.92H4.20001V10.22H9.28001" fill="none" stroke="#3C3C3C" stroke-width="1.5" stroke-linecap="round" stroke-linejoin="round"/>
    </g>
    <defs>
        <clipPath id="clip0_217_571">
            <rect width="34" height="34" fill="white"/>
        </clipPath>
    </defs>
</svg>
