<svg width="34" height="34" viewBox="0 0 34 34" fill="none" xmlns="http://www.w3.org/2000/svg">
    <path d="M8.95 18.92C9.95516 18.92 10.77 18.1052 10.77 17.1C10.77 16.0949 9.95516 15.28 8.95 15.28C7.94485 15.28 7.13 16.0949 7.13 17.1C7.13 18.1052 7.94485 18.92 8.95 18.92Z" fill="current" stroke="#3C3C3C" stroke-width="1.5" stroke-linejoin="round"/>
    <path d="M17.51 18.92C18.5152 18.92 19.33 18.1052 19.33 17.1C19.33 16.0949 18.5152 15.28 17.51 15.28C16.5048 15.28 15.69 16.0949 15.69 17.1C15.69 18.1052 16.5048 18.92 17.51 18.92Z" fill="current" stroke="#3C3C3C" stroke-width="1.5" stroke-linejoin="round"/>
    <path d="M26.07 18.92C27.0752 18.92 27.89 18.1052 27.89 17.1C27.89 16.0949 27.0752 15.28 26.07 15.28C25.0648 15.28 24.25 16.0949 24.25 17.1C24.25 18.1052 25.0648 18.92 26.07 18.92Z" fill="current" stroke="#3C3C3C" stroke-width="1.5" stroke-linejoin="round"/>
</svg>
