<svg width="34" height="34" viewBox="0 0 34 34" fill="none" xmlns="http://www.w3.org/2000/svg">
    <path d="M30.17 16.41C30.7223 16.41 31.17 15.9623 31.17 15.41C31.17 14.8577 30.7223 14.41 30.17 14.41C29.6177 14.41 29.17 14.8577 29.17 15.41C29.17 15.9623 29.6177 16.41 30.17 16.41Z" fill="#3C3C3C"/>
    <path d="M15.02 13.3201C15.5723 13.3201 16.02 12.8724 16.02 12.3201C16.02 11.7678 15.5723 11.3201 15.02 11.3201C14.4677 11.3201 14.02 11.7678 14.02 12.3201C14.02 12.8724 14.4677 13.3201 15.02 13.3201Z" fill="#3C3C3C"/>
    <path d="M17.63 29.58H8.16001C5.53001 29.58 3.39001 27.45 3.39001 24.81V13.91C3.39001 12.36 4.14001 10.91 5.40001 10.02L13.05 4.61004C14.7 3.44004 16.91 3.44004 18.56 4.61004L23.14 7.87004" fill="none" stroke="#3C3C3C" stroke-width="1.5" stroke-linecap="round" stroke-linejoin="round"/>
    <path d="M19.1 16.05C19.1 16.05 20.57 13.21 18.28 10.49" fill="none" stroke="#3C3C3C" stroke-width="1.5" stroke-linecap="round" stroke-linejoin="round"/>
    <path d="M26.42 20.94C26.42 20.94 28.38 18.41 31.8 19.34" fill="none" stroke="#3C3C3C" stroke-width="1.5" stroke-linecap="round" stroke-linejoin="round"/>
    <path d="M23.02 16.27L26.07 15.39L25.83 12.24L28.87 11.36" fill="none" stroke="#3C3C3C" stroke-width="1.5" stroke-linecap="round" stroke-linejoin="round"/>
    <path d="M5.53003 9.68004V4.92004H8.43003V7.56004" fill="none" stroke="#3C3C3C" stroke-width="1.5" stroke-linejoin="round"/>
    <path d="M12.18 32.3399L26.23 25.3099C26.88 24.9899 26.97 24.0999 26.41 23.6399L16.12 15.4199C15.55 14.9699 14.71 15.2499 14.53 15.9599L10.78 31.2099C10.58 32.0299 11.43 32.7199 12.19 32.3399H12.18Z" fill="current" stroke="#3C3C3C" stroke-width="1.5" stroke-linejoin="round"/>
    <path d="M13.78 20.1499L22.32 26.9399" fill="none" stroke="#3C3C3C" stroke-width="1.5" stroke-linejoin="round"/>
    <path d="M12.27 25.2599L17.7 29.8799" fill="none" stroke="#3C3C3C" stroke-width="1.5" stroke-linejoin="round"/>
</svg>
