<svg width="34" height="34" viewBox="0 0 34 34" fill="none" xmlns="http://www.w3.org/2000/svg">
    <path d="M24.1 4.77002H9.23999C7.58314 4.77002 6.23999 6.11317 6.23999 7.77002V20.17C6.23999 21.8269 7.58314 23.17 9.23999 23.17H24.1C25.7568 23.17 27.1 21.8269 27.1 20.17V7.77002C27.1 6.11317 25.7568 4.77002 24.1 4.77002Z" fill="none" stroke="#3C3C3C" stroke-width="1.5" stroke-linecap="round" stroke-linejoin="round"/>
    <path d="M18.12 4.92004V15.54V23.06" fill="none" stroke="#3C3C3C" stroke-width="1.5" stroke-linecap="round" stroke-linejoin="round"/>
    <path d="M27.11 15.55H18.12" fill="none" stroke="#3C3C3C" stroke-width="1.5" stroke-linecap="round" stroke-linejoin="round"/>
    <path d="M9.23999 9.25005C9.23999 8.59005 9.77999 8.05005 10.44 8.05005C11.1 8.05005 11.64 8.59005 11.64 9.25005" stroke="#3C3C3C" stroke-width="1.5" stroke-linecap="round" stroke-linejoin="round"/>
    <path d="M13.26 12.48C13.26 11.82 13.8 11.28 14.46 11.28C15.12 11.28 15.66 11.82 15.66 12.48" fill="none" stroke="#3C3C3C" stroke-width="1.5" stroke-linecap="round" stroke-linejoin="round"/>
    <path d="M13.26 18.92C13.26 18.26 13.8 17.72 14.46 17.72C15.12 17.72 15.66 18.26 15.66 18.92" fill="none" stroke="#3C3C3C" stroke-width="1.5" stroke-linecap="round" stroke-linejoin="round"/>
    <path d="M9.23999 15.62C9.23999 14.96 9.77999 14.42 10.44 14.42C11.1 14.42 11.64 14.96 11.64 15.62" fill="none" stroke="#3C3C3C" stroke-width="1.5" stroke-linecap="round" stroke-linejoin="round"/>
    <path d="M6.78998 26.83H26.63" fill="none" stroke="#3C3C3C" stroke-width="1.5" stroke-linecap="round" stroke-linejoin="round"/>
    <path d="M6.78998 29.52H26.63" fill="none" stroke="#3C3C3C" stroke-width="1.5" stroke-linecap="round" stroke-linejoin="round"/>
    <path d="M18.44 4.75H24.08C25.74 4.75 27.08 6.09 27.08 7.75V15.12C27.08 15.34 26.9 15.52 26.68 15.52H18.45C18.23 15.52 18.05 15.34 18.05 15.12V5.16C18.05 4.94 18.23 4.76 18.45 4.76L18.44 4.75Z" fill="current" stroke="#3C3C3C" stroke-width="1.5" stroke-linejoin="round"/>
</svg>
