<svg width="20" height="20" viewBox="0 0 20 20" fill="none" xmlns="http://www.w3.org/2000/svg">
<g clip-path="url(#clip0_722_399)">
<path d="M12.6798 18.4H4.95977C3.87977 18.4 3.00977 17.52 3.00977 16.45V3.65996C3.00977 2.57996 3.88977 1.70996 4.95977 1.70996H12.6798C13.0898 1.70996 13.4298 2.04996 13.4298 2.45996C13.4298 2.86996 13.0898 3.20996 12.6798 3.20996H4.95977C4.70977 3.20996 4.50977 3.40996 4.50977 3.65996V16.44C4.50977 16.69 4.70977 16.89 4.95977 16.89H12.6798C13.0898 16.89 13.4298 17.23 13.4298 17.64C13.4298 18.05 13.0898 18.39 12.6798 18.39V18.4Z" fill="black"/>
<path d="M17.3202 9.73018L14.1902 6.49018C13.9002 6.19018 13.4302 6.18018 13.1302 6.47018C12.8302 6.76018 12.8202 7.23018 13.1102 7.53018L15.0202 9.50018H8.91016V9.49018C8.50016 9.49018 8.16016 9.82018 8.16016 10.2402C8.16016 10.6502 8.49016 10.9902 8.91016 10.9902H14.8602L13.0402 12.6902C12.7402 12.9702 12.7202 13.4502 13.0002 13.7502C13.1502 13.9102 13.3502 13.9902 13.5502 13.9902C13.7302 13.9902 13.9202 13.9202 14.0602 13.7902L17.2902 10.8002C17.4402 10.6602 17.5202 10.4702 17.5302 10.2702C17.5302 10.0702 17.4602 9.87018 17.3202 9.73018Z" fill="black"/>
</g>
<defs>
<clipPath id="clip0_722_399">
<rect width="20" height="20" fill="white"/>
</clipPath>
</defs>
</svg>
