<svg width="24" height="24" viewBox="0 0 24 24" fill="none" xmlns="http://www.w3.org/2000/svg">
    <g clip-path="url(#clip0_654_509)">
        <path d="M6.80999 1.9502H17.82C18.67 1.9502 19.37 2.6402 19.37 3.5002V10.0802H5.25999V3.5002C5.25999 2.6502 5.94999 1.9502 6.80999 1.9502Z" fill="current"/>
        <path d="M17.82 3.4502C17.82 3.4502 17.87 3.4702 17.87 3.5002V8.5802H6.75999V3.5002C6.75999 3.5002 6.77999 3.4502 6.80999 3.4502H17.82ZM17.82 1.9502H6.80999C5.95999 1.9502 5.25999 2.6402 5.25999 3.5002V10.0802H19.37V3.5002C19.37 2.6502 18.68 1.9502 17.82 1.9502Z" fill="current"/>
        <path d="M5.25999 11.5698H19.37V20.5498C19.37 21.3998 18.68 22.0998 17.82 22.0998H6.80999C5.95999 22.0998 5.25999 21.4098 5.25999 20.5498V11.5698Z" fill="current"/>
        <path d="M17.87 13.0698V20.5498C17.87 20.5498 17.85 20.5998 17.82 20.5998H6.80999C6.80999 20.5998 6.75999 20.5798 6.75999 20.5498V13.0698H17.87ZM19.37 11.5698H5.25999V20.5498C5.25999 21.3998 5.94999 22.0998 6.80999 22.0998H17.83C18.68 22.0998 19.38 21.4098 19.38 20.5498V11.5698H19.37Z" fill="current"/>
        <path d="M19.37 10.0801H5.25999V11.5701H19.37V10.0801Z" fill="white"/>
        <path d="M8.72 4.9502H7.22V8.2002H8.72V4.9502Z" fill="white"/>
        <path d="M8.72 13.5498H7.22V18.5898H8.72V13.5498Z" fill="white"/>
    </g>
    <defs>
        <clipPath id="clip0_654_509">
            <rect width="24" height="24" fill="white"/>
        </clipPath>
    </defs>
</svg>
