<svg width="34" height="34" viewBox="0 0 34 34" fill="none" xmlns="http://www.w3.org/2000/svg">
    <path d="M3.23999 18.46L7.23999 27.67H26.4L30.76 18.34C30.76 18.34 16.7 21.25 3.23999 18.46V18.46Z" fill="none" stroke="#3C3C3C" stroke-width="1.5" stroke-linejoin="round"/>
    <path d="M10.69 14.34C11.2423 14.34 11.69 13.8923 11.69 13.34C11.69 12.7877 11.2423 12.34 10.69 12.34C10.1377 12.34 9.69 12.7877 9.69 13.34C9.69 13.8923 10.1377 14.34 10.69 14.34Z" fill="#3C3C3C"/>
    <path d="M14.2 16.37C14.7523 16.37 15.2 15.9223 15.2 15.37C15.2 14.8177 14.7523 14.37 14.2 14.37C13.6477 14.37 13.2 14.8177 13.2 15.37C13.2 15.9223 13.6477 16.37 14.2 16.37Z" fill="#3C3C3C"/>
    <path d="M6.35999 19.09L7.39999 13.05C7.73999 11.04 9.64998 9.70001 11.65 10.04L14.43 10.52C16.44 10.86 17.78 12.77 17.44 14.77L16.54 20.02" fill="none" stroke="#3C3C3C" stroke-width="1.5" stroke-linejoin="round"/>
    <path d="M20.82 16.08C21.3723 16.08 21.82 15.6322 21.82 15.08C21.82 14.5277 21.3723 14.08 20.82 14.08C20.2677 14.08 19.82 14.5277 19.82 15.08C19.82 15.6322 20.2677 16.08 20.82 16.08Z" fill="#3C3C3C"/>
    <path d="M16.67 19.82L17.53 14.79C17.87 12.78 19.78 11.44 21.78 11.78L24.56 12.26C26.57 12.6 27.91 14.51 27.57 16.51L27.14 19.03" fill="none" stroke="#3C3C3C" stroke-width="1.5" stroke-linejoin="round"/>
    <path d="M18.71 9.63C19.2622 9.63 19.71 9.18229 19.71 8.63C19.71 8.07772 19.2622 7.63 18.71 7.63C18.1577 7.63 17.71 8.07772 17.71 8.63C17.71 9.18229 18.1577 9.63 18.71 9.63Z" fill="#3C3C3C"/>
    <path d="M13.29 10.05L13.64 8.02999C13.98 6.01999 15.89 4.67999 17.89 5.01999L20.67 5.49999C22.68 5.83999 24.02 7.74999 23.68 9.74999L23.29 12" fill="none" stroke="#3C3C3C" stroke-width="1.5" stroke-linejoin="round"/>
    <path d="M8.92999 19.41C8.92999 19.41 14.67 20.6 25.19 19.26C25.19 19.26 23.8 25 17.09 25C10.38 25 8.92999 19.41 8.92999 19.41Z" fill="current" stroke="#3C3C3C" stroke-width="1.5" stroke-linejoin="round"/>
</svg>
