<svg width="14" height="14" viewBox="0 0 14 14" fill="none" xmlns="http://www.w3.org/2000/svg">
    <g clip-path="url(#clip0_649_2342)">
        <path d="M4.34001 5.81984L3.90001 12.5198C3.90001 13.1498 4.37001 13.6698 4.95001 13.6698C5.53001 13.6698 6.00001 13.1598 6.00001 12.5198L5.56001 5.81984L5.61001 5.43984C6.44001 5.08984 7.05001 4.10984 7.05001 2.95984C7.05001 1.50984 6.11001 0.339844 4.94001 0.339844C3.77001 0.339844 2.85001 1.50984 2.85001 2.94984C2.85001 4.09984 3.44001 5.06984 4.27001 5.42984L4.34001 5.80984V5.81984Z" fill="current"/>
        <path d="M8.67 13.65C8.39 13.65 8.16 13.45 8.16 13.21L8.3 0.77002H8.89L9.17 13.21C9.17 13.45 8.94 13.65 8.66 13.65H8.67Z" fill="current"/>
        <path d="M10.19 13.65C9.90999 13.65 9.67999 13.45 9.67999 13.21L9.81999 0.77002H10.41L10.69 13.21C10.69 13.45 10.46 13.65 10.18 13.65H10.19Z" fill="current"/>
    </g>
    <defs>
        <clipPath id="clip0_649_2342">
            <rect width="14" height="14" fill="white"/>
        </clipPath>
    </defs>
</svg>
